<?xml version="1.0" encoding="utf-8"?>
<!-- Generator: Adobe Illustrator 16.0.4, SVG Export Plug-In . SVG Version: 6.00 Build 0)  -->
<!DOCTYPE svg PUBLIC "-//W3C//DTD SVG 1.1//EN" "http://www.w3.org/Graphics/SVG/1.1/DTD/svg11.dtd">
<svg version="1.1" id="Capa_1" xmlns="http://www.w3.org/2000/svg" xmlns:xlink="http://www.w3.org/1999/xlink" x="0px" y="0px"
	 width="654.808px" height="654.81px" viewBox="93.54 -29.765 654.808 654.81"
	 enable-background="new 93.54 -29.765 654.808 654.81" xml:space="preserve">
<circle fill="#594272" cx="420.945" cy="297.64" r="327.405"/>
<path fill="#FFF388" d="M312.429,205.269h-85.422c-11.927,0-21.595,9.668-21.595,21.594v131.301
	c0,11.916,9.668,21.584,21.595,21.584h85.422c3.85,0,7.626,1.026,10.951,2.977l136.873,127.431
	c14.39,8.468,32.535-1.908,32.535-18.607V93.469c0-16.699-18.146-27.075-32.535-18.607L323.38,202.293
	C320.055,204.243,316.279,205.269,312.429,205.269z"/>
<path fill="#FFF388" d="M533.842,390.011c-2.627,0-5.254-1.006-7.256-3.007c-4.013-4.014-4.013-10.5,0-14.513
	c44.103-44.103,44.103-115.864,0-159.967c-4.013-4.013-4.013-10.499,0-14.513c4.013-4.013,10.5-4.013,14.513,0
	c52.107,52.107,52.107,136.884,0,188.992C539.098,389.006,536.47,390.011,533.842,390.011z"/>
</svg>
